<svg xmlns="http://www.w3.org/2000/svg" viewBox="0 0 205.7 72.5"><path id="m" fill="currentColor" fill-rule="evenodd" d="M 102.5 1.2 C 102.4 1.3 102.1 1.8 101.9 2.3 C 101.7 2.7 101.3 3.6 101 4.2 C 100.7 4.8 100.5 5.2 100.5 5.3 C 100.5 5.3 100.3 5.7 100 6.3 C 99.8 6.8 99.6 7.2 99.6 7.3 C 99.6 7.3 99.1 8.3 98.3 10.2 C 97.8 11 97.2 12.4 96.8 13.3 C 96.1 14.8 94.3 18.6 93.4 20.6 C 93.1 21.2 92.9 21.6 92.9 21.7 C 92.9 21.7 92.7 22.2 92.3 22.9 C 92 23.5 91.8 24 91.8 24.1 C 91.8 24.1 91.6 24.6 91.3 25.2 C 91 25.8 90.4 27 90.1 27.8 C 89.7 28.5 89.2 29.5 89 30 C 88.8 30.4 88.6 31 88.4 31.4 C 88.3 31.7 87.7 32.8 87.2 33.9 C 86.7 34.9 86.1 36.3 85.8 36.9 C 85.5 37.5 85 38.6 84.7 39.2 C 83.8 41 84 41.4 85.2 40.7 C 85.5 40.5 86.2 40.1 86.5 39.9 C 86.9 39.7 87.3 39.5 87.4 39.4 C 87.5 39.3 88.2 38.9 89.8 38 C 89.9 37.9 90.7 37.5 91.4 37 C 92.1 36.5 93.2 35.9 93.7 35.6 C 94.2 35.3 94.9 34.9 95.3 34.7 C 95.6 34.5 96.3 34.1 96.8 33.9 C 97.2 33.6 98.8 32.7 100.1 32 C 102.9 30.4 102.9 30.4 103.9 31 C 104.2 31.2 105.1 31.7 105.8 32.1 C 108.5 33.6 109.2 34 110.6 34.8 C 111.4 35.2 112.2 35.7 112.4 35.8 C 112.6 35.9 113 36.2 113.3 36.4 C 113.7 36.6 115 37.4 116.2 38.1 C 117.4 38.8 118.8 39.7 119.3 39.9 C 120.9 40.9 121.3 41.1 121.4 40.9 C 121.7 40.7 121.6 40.6 121.2 39.7 C 121 39.3 120.7 38.7 120.6 38.3 C 120.4 38 119.6 36.2 118.7 34.3 C 116.7 30.2 116.6 30 115.9 28.3 C 115.5 27.6 115 26.6 114.8 25.9 C 113.7 23.9 112 20.2 110.4 16.6 C 110.1 16 109.6 15 109.3 14.3 C 109.1 13.7 108.6 12.7 108.2 12 C 107.9 11.3 107.5 10.3 107.2 9.7 C 105.8 6.8 104.4 3.8 104.4 3.7 C 104.4 3.6 103.3 1.3 103.1 1.2 C 102.9 1 102.7 1 102.5 1.2 M 61.4 23 C 55.1 23.1 46.2 23.3 44.1 23.4 C 43.1 23.4 40.2 23.5 37.5 23.5 C 33.2 23.6 29 23.7 23.9 23.8 C 23 23.9 19.5 23.9 16.3 24 C 5.1 24.2 2.5 24.5 1.4 25.5 C 0.3 26.6 1.3 27.9 3.6 28.3 C 4 28.4 4.8 28.5 5.3 28.6 C 6.3 28.8 7.4 28.9 9.5 29.2 C 10 29.3 10.6 29.4 10.9 29.4 C 12.8 29.7 15.4 30.1 16.6 30.2 C 17.3 30.3 17.9 30.4 19.6 30.6 C 20 30.6 20.7 30.8 21.3 30.8 C 21.8 30.9 22.8 31.1 23.4 31.1 C 24.1 31.2 24.9 31.3 25.3 31.4 C 25.9 31.5 26.8 31.6 28.4 31.8 C 28.9 31.9 29.6 32 30.1 32.1 C 30.6 32.1 31.6 32.3 32.3 32.3 C 34.6 32.6 35.2 32.7 37.8 33 C 39.1 33.2 41 33.5 42 33.6 C 42.9 33.7 44.1 33.9 44.5 33.9 C 45.7 34.1 47.6 34.4 48.6 34.5 C 49 34.5 50.3 34.7 51.4 34.9 C 52.5 35 54.1 35.3 54.8 35.4 C 55.5 35.4 56.5 35.6 56.9 35.6 C 58.6 35.8 59.7 35.9 61.8 36 C 64.9 36 65.8 35.9 69.4 34.6 C 70.4 34.3 71.6 33.9 72.1 33.7 C 72.6 33.5 73.5 33.2 74.1 33 C 74.7 32.8 75.6 32.5 76.1 32.4 C 76.6 32.3 77 32.1 77.1 32.1 C 77.2 32 77.7 31.9 79 31.7 C 81.7 31.1 82.1 31 82.5 30 C 82.6 29.8 82.9 29.1 83.2 28.4 C 84.4 25.8 84.3 25.7 82.1 25.4 C 81.5 25.3 80.6 25.1 80 25 C 79.5 24.9 78.8 24.7 78.5 24.7 C 78.1 24.6 77.4 24.5 76.8 24.3 C 76.2 24.2 75.6 24 75.3 24 C 75.1 23.9 74.4 23.8 73.7 23.6 C 70.9 22.9 69.4 22.9 61.4 23 M 136.1 23 C 134.5 23.1 133.2 23.3 131.6 23.7 C 130.5 24 128.1 24.6 127.3 24.7 C 127 24.8 126.3 24.9 126 25 C 125.6 25 124.8 25.2 124.3 25.3 C 121.3 25.7 121.3 25.7 122.2 27.7 C 122.5 28.4 123 29.4 123.1 29.8 C 123.7 31 123.8 31.1 125.2 31.3 C 127.5 31.8 127.7 31.9 128.8 32.2 C 129.8 32.4 133.2 33.5 136.6 34.7 C 139.9 35.9 140.7 36 143.1 36 C 144.1 36 145.3 36 145.9 35.9 C 148.5 35.6 148.9 35.6 150.9 35.3 C 152.1 35.2 153.6 35 154.3 34.9 C 155.1 34.8 156.1 34.7 156.6 34.6 C 157.1 34.5 158.5 34.3 159.7 34.2 C 160.8 34 162.3 33.8 163 33.7 C 163.7 33.7 165.2 33.5 166.4 33.3 C 167.7 33.1 169 33 169.4 32.9 C 169.9 32.8 170.5 32.7 170.9 32.7 C 171.3 32.6 171.9 32.6 172.4 32.5 C 174.2 32.3 175.7 32.1 175.8 32 C 175.8 32 176.3 32 176.9 31.9 C 178 31.8 179.2 31.6 180.1 31.5 C 181.2 31.3 182.2 31.2 183.8 31 C 184.7 30.9 185.7 30.8 186 30.7 C 186.6 30.6 187.5 30.5 189.1 30.3 C 190.7 30.1 191.5 30 192.3 29.8 C 192.8 29.8 193.5 29.7 193.9 29.6 C 194.4 29.5 195 29.4 195.3 29.4 C 195.6 29.4 196.3 29.3 196.8 29.2 C 198.3 29 199.7 28.8 200.7 28.6 C 201.1 28.5 201.8 28.4 202.2 28.3 C 203 28.1 204.2 27.6 204.4 27.2 C 204.7 26.8 204.7 26.3 204.5 25.8 C 203.8 24.4 201.3 24.2 185.6 23.9 C 182.7 23.8 178.8 23.8 177 23.7 C 175.2 23.6 171.5 23.6 168.8 23.5 C 166.1 23.5 161.8 23.4 159.3 23.3 C 144.9 23 138.4 22.9 136.1 23 M 101.5 38.4 C 100.5 38.9 99.3 39.7 97.9 40.5 C 96.1 41.6 95.6 41.9 95.2 42.1 C 94.5 42.5 94.4 42.8 94.8 44 C 94.9 44.5 95.1 45.2 95.2 45.5 C 95.3 45.9 95.5 46.9 95.8 47.9 C 96.3 49.6 97 52 97.5 53.8 C 97.6 54.3 97.8 55 97.9 55.4 C 98 55.7 98.3 56.7 98.5 57.6 C 98.8 58.6 99.1 59.6 99.2 60 C 99.3 60.4 99.5 61.1 99.7 61.5 C 99.8 62 100 62.7 100.1 63 C 100.1 63.2 100.3 63.9 100.4 64.3 C 100.6 64.8 100.8 65.7 101 66.3 C 101.2 66.9 101.4 67.7 101.6 68.2 C 101.8 69 102 69.7 102.5 71 C 102.6 71.3 102.7 71.4 102.9 71.4 C 103.1 71.4 103.2 71.2 103.4 70.5 C 103.5 70.1 103.7 69.5 103.8 69.1 C 104 68.7 104.2 67.8 104.4 67.2 C 104.6 66.6 104.8 65.6 105 65.1 C 105.1 64.6 105.3 63.9 105.4 63.6 C 105.5 63 105.6 62.7 105.9 61.9 C 106 61.5 106.2 60.6 106.5 59.9 C 106.7 59.2 106.9 58.2 107.1 57.8 C 107.2 57.4 107.4 56.6 107.5 56 C 107.7 55.5 107.9 54.7 108 54.4 C 108.4 52.8 108.7 51.7 109.1 50.5 C 110.2 46.9 111.1 43.4 111.1 43 C 111.1 42.6 110.9 42.4 110.2 41.9 C 109.8 41.7 109.3 41.4 109 41.2 C 108.6 41 107.8 40.5 107.1 40.1 C 106.4 39.7 105.4 39.1 104.9 38.8 C 102.9 37.6 102.9 37.6 101.5 38.4"/></svg>
